<svg width="91" height="24" viewBox="0 0 91 24" fill="none" xmlns="http://www.w3.org/2000/svg">
    <path d="M9.92 18L7.792 13.632C9.104 13.048 9.736 11.784 9.736 10.232C9.736 8.328 8.8 6.856 6.8 6.544C6.504 6.496 6.104 6.48 5.88 6.48H1.12V18H3.048V13.976H5.784L7.736 18H9.92ZM3.048 8.288H5.8C6.016 8.288 6.304 8.304 6.528 8.36C7.488 8.608 7.792 9.496 7.792 10.232C7.792 10.968 7.488 11.856 6.528 12.096C6.304 12.16 6.016 12.176 5.8 12.176H3.048V8.288ZM16.5545 18.24C20.0105 18.24 22.0745 15.816 22.0745 12.24C22.0745 8.664 20.0105 6.24 16.5545 6.24C13.1065 6.24 11.0425 8.664 11.0425 12.24C11.0425 15.816 13.1065 18.24 16.5545 18.24ZM16.5545 16.424C14.2345 16.392 13.0745 14.76 13.0825 12.24C13.0905 9.72 14.2345 8.032 16.5545 8.056C18.8745 8.088 20.0345 9.72 20.0345 12.24C20.0345 14.76 18.8745 16.448 16.5545 16.424ZM21.91 18H24.286L27.006 13.816L29.718 18H32.078L28.19 12.176L31.982 6.48H29.606L27.006 10.536L24.382 6.48H22.022L25.814 12.176L21.91 18Z"
          fill="black"/>
    <rect x="37" width="54" height="24" rx="4" fill="url(#paint0_linear)"/>
    <path d="M42.12 18H45.792C45.976 18 46.664 18 47.192 17.936C49.936 17.592 51.432 15.176 51.432 12.24C51.432 9.312 49.936 6.888 47.192 6.544C46.656 6.48 45.984 6.48 45.792 6.48H42.12V18ZM44.08 16.184V8.296H45.792C46.112 8.296 46.672 8.304 47.064 8.384C48.656 8.688 49.392 10.36 49.392 12.24C49.392 14.048 48.696 15.784 47.064 16.096C46.672 16.176 46.112 16.184 45.792 16.184H44.08ZM58.1951 18.24C61.6511 18.24 63.7151 15.816 63.7151 12.24C63.7151 8.664 61.6511 6.24 58.1951 6.24C54.7471 6.24 52.6831 8.664 52.6831 12.24C52.6831 15.816 54.7471 18.24 58.1951 18.24ZM58.1951 16.424C55.8751 16.392 54.7151 14.76 54.7231 12.24C54.7311 9.72 55.8751 8.032 58.1951 8.056C60.5151 8.088 61.6751 9.72 61.6751 12.24C61.6751 14.76 60.5151 16.448 58.1951 16.424ZM70.1795 18.24C72.8275 18.24 74.6515 16.816 75.3635 14.56L73.4195 14.024C72.9715 15.52 71.8995 16.424 70.1795 16.424C67.8595 16.424 66.6915 14.76 66.6915 12.24C66.6995 9.72 67.8595 8.056 70.1795 8.056C71.8995 8.056 72.9715 8.96 73.4195 10.456L75.3635 9.92C74.6515 7.664 72.8275 6.24 70.1795 6.24C66.7315 6.24 64.6675 8.664 64.6675 12.24C64.6675 15.816 66.7315 18.24 70.1795 18.24ZM81.8684 18.24C84.2364 18.24 86.3884 17.04 86.3884 14.648C86.3884 12.36 84.4204 11.784 83.3004 11.48L81.2364 10.904C80.4604 10.696 79.5724 10.384 79.5724 9.528C79.5724 8.632 80.5804 8.032 81.7324 8.056C82.9164 8.088 83.9804 8.768 84.2284 9.984L86.3004 9.624C85.7884 7.488 84.1244 6.28 81.7564 6.256C79.4124 6.24 77.5484 7.4 77.5484 9.624C77.5484 11.656 79.0924 12.272 80.1164 12.568L83.0924 13.448C83.9644 13.712 84.3724 14.136 84.3724 14.776C84.3724 15.84 83.2204 16.432 81.9884 16.432C80.5964 16.432 79.4364 15.656 79.1004 14.288L77.1004 14.592C77.4604 16.856 79.3484 18.24 81.8684 18.24Z"
          fill="white"/>
    <defs>
        <linearGradient id="paint0_linear" x1="10" y1="12" x2="27.8144" y2="52.0825" gradientUnits="userSpaceOnUse">
            <stop stop-color="#4864EB"/>
            <stop offset="1" stop-color="#2841B6"/>
        </linearGradient>
    </defs>
</svg>
